<svg width="359" height="356" viewBox="0 0 359 356" fill="none" xmlns="http://www.w3.org/2000/svg">
<g clip-path="url(#clip0_45_2)">
<rect width="359" height="356" rx="75" fill="white"/>
<path d="M-19 -44H359V356H-19V-44Z" fill="#DA3D3D"/>
<line x1="190.188" y1="292.973" x2="273.188" y2="165.973" stroke="#DA3D3D" stroke-width="33"/>
<path d="M206.293 265.25C195.96 265.25 186.793 263.333 178.793 259.5C170.96 255.5 164.876 250 160.543 243C156.21 236 154.043 227.917 154.043 218.75C154.043 216.75 154.21 214.5 154.543 212C154.876 209.5 155.126 207.333 155.293 205.5L165.293 140.75C165.46 139.917 165.543 139 165.543 138C165.71 137 165.793 136 165.793 135C165.793 132.167 164.793 129.833 162.793 128C160.96 126.167 158.543 125.25 155.543 125.25C153.043 125.25 150.793 125.75 148.793 126.75C146.793 127.75 145.126 129.167 143.793 131C142.46 132.833 141.543 135.083 141.043 137.75L121.543 262H75.293L94.793 137.75C96.6263 126.417 100.543 116.75 106.543 108.75C112.543 100.75 120.126 94.5833 129.293 90.25C138.626 85.9167 148.876 83.75 160.043 83.75C170.543 83.75 179.626 85.8333 187.293 90C195.126 94 201.293 99.5833 205.793 106.75C210.293 113.75 212.543 122 212.543 131.5C212.543 133.5 212.376 135.583 212.043 137.75C211.876 139.917 211.626 141.833 211.293 143.5L201.043 208.25C200.876 209.25 200.71 210.25 200.543 211.25C200.376 212.25 200.293 213.167 200.293 214C200.293 217.167 201.293 219.667 203.293 221.5C205.46 223.167 207.96 224 210.793 224C213.126 224 215.293 223.5 217.293 222.5C219.46 221.5 221.21 220.083 222.543 218.25C223.876 216.25 224.793 214 225.293 211.5L244.793 87H291.043L271.543 211.5C269.71 223 265.71 232.75 259.543 240.75C253.376 248.75 245.626 254.833 236.293 259C227.126 263.167 217.126 265.25 206.293 265.25Z" fill="white"/>
</g>
<defs>
<clipPath id="clip0_45_2">
<rect width="359" height="356" rx="75" fill="white"/>
</clipPath>
</defs>
</svg>
